<?xml version="1.0" encoding="UTF-8"?>
<svg version="1.1" xmlns="http://www.w3.org/2000/svg" width="512" height="512">
<path d="M0 0 C1.01790619 0.00215515 2.03581238 0.0043103 3.08456421 0.00653076 C17.69363523 0.05620146 32.02575853 0.30709809 46.375 3.3125 C47.34985352 3.51117676 48.32470703 3.70985352 49.32910156 3.91455078 C97.7109774 14.03517194 141.69928269 35.9516877 177.375 70.3125 C178.3640332 71.26068604 178.3640332 71.26068604 179.37304688 72.22802734 C188.86130305 81.37247479 197.6012044 90.66984009 205.375 101.3125 C206.23306152 102.46355017 207.09113451 103.61459177 207.94921875 104.765625 C213.98736829 112.95680614 219.34595521 121.47054105 224.375 130.3125 C224.73948242 130.94430176 225.10396484 131.57610352 225.47949219 132.22705078 C247.08534998 169.97532572 256.85198095 212.74189997 256.6875 255.9375 C256.68534485 256.95540619 256.6831897 257.97331238 256.68096924 259.02206421 C256.63129854 273.63113523 256.38040191 287.96325853 253.375 302.3125 C253.07698486 303.77478027 253.07698486 303.77478027 252.77294922 305.26660156 C242.65232806 353.6484774 220.7358123 397.63678269 186.375 433.3125 C185.74287598 433.97185547 185.11075195 434.63121094 184.45947266 435.31054688 C175.31502521 444.79880305 166.01765991 453.5387044 155.375 461.3125 C154.22394983 462.17056152 153.07290823 463.02863451 151.921875 463.88671875 C143.73224019 469.92427396 135.22961724 475.30707302 126.375 480.3125 C125.66778809 480.7146875 124.96057617 481.116875 124.23193359 481.53125 C101.09654164 494.5566741 75.92537591 503.30551461 49.9375 508.625 C49.21860596 508.77235596 48.49971191 508.91971191 47.7590332 509.0715332 C33.08339502 511.86090125 18.55831162 512.66142619 3.64770508 512.62817383 C0.70811513 512.6250221 -2.2304558 512.64854926 -5.16992188 512.67382812 C-18.54306192 512.71848737 -31.43916711 511.51301542 -44.625 509.3125 C-46.33055054 509.03031616 -46.33055054 509.03031616 -48.07055664 508.74243164 C-91.33802759 500.97044532 -132.38793216 480.98345309 -165.625 452.3125 C-166.37007813 451.67828125 -167.11515625 451.0440625 -167.8828125 450.390625 C-181.38779833 438.57948485 -194.05918743 425.82889772 -204.625 411.3125 C-205.48149066 410.16255169 -206.33826433 409.01281411 -207.1953125 407.86328125 C-213.23534209 399.67315742 -218.61867614 391.16870382 -223.625 382.3125 C-224.0271875 381.60528809 -224.429375 380.89807617 -224.84375 380.16943359 C-237.8691741 357.03404164 -246.61801461 331.86287591 -251.9375 305.875 C-252.08485596 305.15610596 -252.23221191 304.43721191 -252.3840332 303.6965332 C-255.35789088 288.05024391 -255.99800362 272.57681954 -255.9375 256.6875 C-255.93534485 255.66959381 -255.9331897 254.65168762 -255.93096924 253.60293579 C-255.88129854 238.99386477 -255.63040191 224.66174147 -252.625 210.3125 C-252.42632324 209.33764648 -252.22764648 208.36279297 -252.02294922 207.35839844 C-241.90232806 158.9765226 -219.9858123 114.98821731 -185.625 79.3125 C-184.99287598 78.65314453 -184.36075195 77.99378906 -183.70947266 77.31445312 C-174.56502521 67.82619695 -165.26765991 59.0862956 -154.625 51.3125 C-153.47394983 50.45443848 -152.32290823 49.59636549 -151.171875 48.73828125 C-142.98224019 42.70072604 -134.47961724 37.31792698 -125.625 32.3125 C-124.91778809 31.9103125 -124.21057617 31.508125 -123.48193359 31.09375 C-100.34654164 18.0683259 -75.17537591 9.31948539 -49.1875 4 C-48.46860596 3.85264404 -47.74971191 3.70528809 -47.0090332 3.5534668 C-31.36274391 0.57960912 -15.88931954 -0.06050362 0 0 Z M-77.625 125.3125 C-81.51876886 130.95404012 -83.75814924 135.08209875 -83.72265625 142.07421875 C-83.71943359 143.19248047 -83.71621094 144.31074219 -83.71289062 145.46289062 C-83.70451172 146.63013672 -83.69613281 147.79738281 -83.6875 149 C-83.68298828 150.17884766 -83.67847656 151.35769531 -83.67382812 152.57226562 C-83.66203273 155.48572789 -83.6455727 158.39908863 -83.625 161.3125 C-84.85951904 161.29155273 -86.09403809 161.27060547 -87.3659668 161.24902344 C-92.00468054 161.17589243 -96.64334478 161.13043785 -101.2824707 161.09277344 C-103.27930305 161.07282281 -105.27607824 161.04565228 -107.27270508 161.01074219 C-123.67340169 160.73144157 -137.86381541 161.40088262 -150.5546875 173.08984375 C-158.36060897 181.28103602 -161.73276267 191.00791916 -161.77217102 202.16625977 C-161.77584771 202.84331278 -161.7795244 203.52036579 -161.7833125 204.21793556 C-161.79429917 206.47993359 -161.79818466 208.7418856 -161.80200195 211.00390625 C-161.80827057 212.62885177 -161.81491772 214.25379586 -161.82191467 215.8787384 C-161.84291632 221.21081553 -161.85331586 226.5428928 -161.86328125 231.875 C-161.86733076 233.715027 -161.87144774 235.55505386 -161.87563133 237.39508057 C-161.89467725 246.04431634 -161.90890754 254.69354363 -161.9172433 263.34279633 C-161.92700307 273.30350593 -161.95329215 283.26399257 -161.99374419 293.22462368 C-162.02398595 300.93781687 -162.03871994 308.65094645 -162.04202431 316.36419773 C-162.04436628 320.96393808 -162.0532145 325.56344009 -162.07848549 330.16311646 C-162.10191168 334.49703486 -162.10594157 338.83056047 -162.09572411 343.16452599 C-162.09523209 344.74583944 -162.10145258 346.32717321 -162.11528015 347.90842628 C-162.23606004 362.55240248 -160.0465033 374.68443152 -149.5546875 385.43359375 C-142.6294604 392.00894004 -134.81742964 396.42451209 -125.10301876 396.44672108 C-123.74272373 396.45340784 -123.74272373 396.45340784 -122.35494798 396.46022969 C-121.36245611 396.46004533 -120.36996424 396.45986097 -119.34739685 396.45967102 C-118.29001676 396.46334771 -117.23263667 396.4670244 -116.14321476 396.4708125 C-112.58822879 396.48185492 -109.03327205 396.48569416 -105.47827148 396.48950195 C-102.93398445 396.49576622 -100.38969832 396.50241299 -97.84541321 396.50941467 C-90.20143059 396.52864555 -82.55745311 396.53924388 -74.91345248 396.54814246 C-71.31113178 396.55252833 -67.70881254 396.55789441 -64.106493 396.56313133 C-52.12667744 396.58014297 -40.14686279 396.59463587 -28.16703701 396.60188007 C-25.05919328 396.60378988 -21.95134956 396.60571022 -18.84350586 396.60766602 C-18.07109344 396.60814976 -17.29868102 396.6086335 -16.50286216 396.6091319 C-3.99777312 396.61742745 8.50722012 396.6427566 21.01226736 396.67524669 C33.85956001 396.70835299 46.70680403 396.7263321 59.55413955 396.72952431 C66.76391697 396.73168624 73.97355472 396.74038802 81.18329048 396.76598549 C87.96881335 396.79002154 94.75404195 396.79349581 101.53961372 396.78322411 C104.0264062 396.78272884 106.51321107 396.78904658 108.99996567 396.80278015 C112.4031134 396.82051887 115.80536226 396.81338216 119.20851135 396.80024719 C120.18538817 396.81121644 121.162265 396.82218568 122.16874415 396.83348733 C133.99881547 396.72375796 143.0705419 392.33933059 151.50390625 384.27734375 C159.48621412 375.94222669 162.48745754 366.85857758 162.51544189 355.43855286 C162.51841302 354.75938315 162.52138414 354.08021344 162.5244453 353.38046283 C162.53309607 351.11145805 162.53463747 348.84250627 162.53613281 346.57348633 C162.5407636 344.94367359 162.54578861 343.31386192 162.55117798 341.68405151 C162.56427998 337.26026392 162.57074279 332.8364915 162.57518864 328.41268754 C162.57812327 325.64615759 162.58222885 322.87963174 162.58669281 320.11310387 C162.60036274 311.4494554 162.61003153 302.78581637 162.6138947 294.12215787 C162.61837256 284.13598888 162.63590993 274.14995695 162.6648953 264.16382962 C162.6865454 256.43539585 162.69660078 248.70700055 162.69793582 240.97853678 C162.69898158 236.36720199 162.70484039 231.75599613 162.72275543 227.14469337 C162.73929348 222.80344434 162.74136394 218.46242038 162.73261642 214.12115097 C162.73184908 212.53374692 162.73614864 210.94633049 162.74607468 209.35895729 C162.82829448 195.38318264 160.91829036 183.85856904 151.40625 173.08203125 C141.73862428 163.74716801 130.46522447 161.14158127 117.48046875 161.21484375 C116.53311356 161.2162587 115.58575836 161.21767365 114.60969543 161.21913147 C111.59393105 161.22471389 108.57824182 161.23726318 105.5625 161.25 C103.51367295 161.25501727 101.46484473 161.25957978 99.41601562 161.26367188 C94.40231494 161.27467757 89.3886702 161.29193012 84.375 161.3125 C84.40118408 160.60754395 84.42736816 159.90258789 84.4543457 159.17626953 C84.55935626 155.93024688 84.62365286 152.68458298 84.6875 149.4375 C84.7503418 147.77460938 84.7503418 147.77460938 84.81445312 146.078125 C84.94794826 137.00045569 83.02310753 130.62678369 77.12890625 123.65625 C76.40574219 123.0478125 75.68257812 122.439375 74.9375 121.8125 C74.21691406 121.1834375 73.49632812 120.554375 72.75390625 119.90625 C66.30429046 115.58532513 59.5687727 116.01613243 52.08666992 116.02197266 C50.85179337 116.01525543 49.61691681 116.00853821 48.34461975 116.00161743 C44.96836987 115.98590359 41.59236605 115.9792641 38.21609664 115.97798586 C36.10301592 115.97656085 33.98996073 115.97228462 31.87688637 115.96699142 C24.4943237 115.94850652 17.11183309 115.9403188 9.72924805 115.94189453 C2.86500855 115.94309522 -3.99891615 115.92200338 -10.86307603 115.8904072 C-16.77073472 115.86419017 -22.67829094 115.85352951 -28.5860073 115.85480535 C-32.10803192 115.85531343 -35.62977665 115.84971617 -39.15174294 115.82844925 C-43.08411392 115.80535092 -47.01605872 115.81462096 -50.94848633 115.82666016 C-52.6811525 115.80980164 -52.6811525 115.80980164 -54.44882202 115.79260254 C-63.87974166 115.86580957 -71.44988141 117.76513284 -77.625 125.3125 Z " fill="#3483BB" transform="translate(255.625,-0.3125)"/>
<path d="M0 0 C1.74202843 0.94184892 3.48304117 1.88557657 5.22363281 2.83007812 C6.67808807 3.618078 6.67808807 3.618078 8.16192627 4.42199707 C12.12813706 6.6272577 15.93831009 9.04039402 19.75 11.5 C27.09589562 16.18783637 34.49294214 20.78293584 41.9375 25.3125 C42.85950195 25.87453125 43.78150391 26.4365625 44.73144531 27.015625 C46.50245795 28.09126683 48.27902248 29.15784143 50.06200981 30.21351528 C51.96087854 31.36814813 53.83260149 32.56922472 55.66719246 33.82347965 C63.60265663 39.01381749 69.80861653 40.01508919 79.17529297 39.92163086 C80.55337083 39.93278468 81.93142745 39.94688516 83.30944824 39.96366882 C87.01659242 39.99953062 90.72239169 39.99169388 94.42961645 39.9732101 C97.54061249 39.96195523 100.65137218 39.97299304 103.76235688 39.98398215 C111.11019143 40.00975186 118.45738532 40.00038349 125.80517578 39.9675293 C133.34924667 39.93430765 140.89174393 39.95539534 148.43569458 40.00423139 C154.94662964 40.04473005 161.45708478 40.05367294 167.96812546 40.03740031 C171.84198099 40.02786304 175.71497691 40.02909724 179.5887413 40.05979729 C201.72796991 40.6744269 201.72796991 40.6744269 221 31 C222.66735652 29.95495062 224.34738522 28.92943772 226.046875 27.9375 C227.6160324 26.96065722 229.1837179 25.98144646 230.75 25 C232.53494876 23.8889895 234.32011625 22.77833035 236.10546875 21.66796875 C237.04438965 21.08321777 237.98331055 20.4984668 238.95068359 19.89599609 C244.06531712 16.71583244 249.18892723 13.55028622 254.3157959 10.38989258 C256.03463983 9.32968456 257.7521924 8.2674062 259.46972656 7.20507812 C260.52256836 6.55603516 261.57541016 5.90699219 262.66015625 5.23828125 C263.59480713 4.66118408 264.52945801 4.08408691 265.49243164 3.48950195 C267.62864515 2.22058572 269.77285712 1.09577104 272 0 C272.07008969 16.47236861 272.12298793 32.94468882 272.15543652 49.41717052 C272.1709036 57.06568068 272.19199003 64.71409816 272.22631836 72.36254883 C272.25622564 79.02915726 272.27557616 85.69569857 272.28226548 92.36237222 C272.28617552 95.89215517 272.29536114 99.42174612 272.31719017 102.95146751 C272.34136448 106.89240485 272.34196913 110.83315456 272.34057617 114.77416992 C272.35675491 116.52852104 272.35675491 116.52852104 272.3732605 118.3183136 C272.36913651 119.39378448 272.36501251 120.46925537 272.36076355 121.57731628 C272.36352893 122.50924899 272.36629431 123.4411817 272.36914349 124.40135479 C271.92074237 127.55794688 270.84963686 129.42328403 269 132 C264.67287567 135.10665336 260.91562946 136.1226606 255.65425396 136.13142776 C254.35295985 136.13718948 254.35295985 136.13718948 253.02537698 136.1430676 C252.076848 136.14220112 251.12831903 136.14133463 250.15104675 136.14044189 C248.63424717 136.14489858 248.63424717 136.14489858 247.08680516 136.1494453 C243.68831426 136.15813761 240.28985857 136.15964099 236.89135742 136.16113281 C234.45880559 136.16576057 232.02625448 136.17078517 229.59370422 136.17617798 C222.97798042 136.1893072 216.36226394 136.19578454 209.74653029 136.20018864 C205.61499322 136.20295235 201.48345848 136.20718992 197.35192299 136.21169281 C185.91081864 136.22388393 174.46971616 136.23418381 163.02860546 136.2375679 C162.29653929 136.23778747 161.56447312 136.23800703 160.81022312 136.23823325 C159.70951339 136.23856067 159.70951339 136.23856067 158.5865671 136.2388947 C157.09962221 136.23933817 155.61267731 136.23978473 154.12573242 136.24023438 C153.019371 136.24056652 153.019371 136.24056652 151.89065883 136.24090537 C139.9390065 136.2448535 127.98741513 136.26230866 116.03578635 136.2855939 C103.7625588 136.30931255 91.48936184 136.32176997 79.216111 136.32293582 C72.32618629 136.32385225 65.43634103 136.32959654 58.54643822 136.34775543 C52.06630717 136.36477431 45.5862867 136.36640519 39.10613823 136.35761642 C36.72732388 136.35684457 34.3485015 136.3612082 31.96970749 136.37107468 C28.72292576 136.38375192 25.47668197 136.37793997 22.22990417 136.36749268 C21.28806737 136.37554908 20.34623056 136.38360548 19.37585324 136.39190602 C12.73205412 136.34189006 7.79740193 135.42932273 2.625 130.9375 C-0.00292148 127.80420901 -0.12421861 125.95767238 -0.12025452 121.93807983 C-0.12162918 120.86673294 -0.12300385 119.79538605 -0.12442017 118.6915741 C-0.12082489 117.51122086 -0.11722961 116.33086761 -0.11352539 115.11474609 C-0.11367142 113.87575058 -0.11381744 112.63675507 -0.1139679 111.36021423 C-0.11338953 107.95752498 -0.10836527 104.55489597 -0.10139394 101.15221739 C-0.09515368 97.59811295 -0.09455607 94.04400775 -0.09336853 90.48989868 C-0.0902572 83.75738213 -0.08204648 77.02488176 -0.07201904 70.29237235 C-0.06085176 62.6286288 -0.0553459 54.96488448 -0.05032361 47.30113482 C-0.03986371 31.5340805 -0.02226809 15.76704234 0 0 Z M23.6875 91.625 C21.148576 95.19830044 20.80446991 98.66825636 21 103 C22.48783686 107.22858897 24.13588356 109.70568086 28 112 C30.87251922 112.95750641 32.74027901 113.14210572 35.72753906 113.17700195 C36.68573547 113.18983719 37.64393188 113.20267242 38.63116455 113.21589661 C39.6655365 113.22328354 40.69990845 113.23067047 41.765625 113.23828125 C43.36576447 113.25038887 43.36576447 113.25038887 44.99822998 113.26274109 C47.2577553 113.27657707 49.51730148 113.28730139 51.77685547 113.29516602 C55.22273666 113.31236393 58.66765472 113.35625386 62.11328125 113.40039062 C64.30988879 113.4105191 66.50650447 113.41903472 68.703125 113.42578125 C70.24253754 113.45204338 70.24253754 113.45204338 71.81304932 113.47883606 C78.09469062 113.45990603 81.90333895 112.76444336 87 109 C89.70328624 104.98867203 90.7011114 101.807621 90 97 C87.60618196 92.63983143 85.07474646 88.94341421 80.16134644 87.43585205 C77.86255174 86.97228251 75.76284053 86.85912453 73.41845703 86.83886719 C72.51717072 86.82925964 71.6158844 86.8196521 70.68728638 86.80975342 C69.23719681 86.8033786 69.23719681 86.8033786 67.7578125 86.796875 C66.25612015 86.78832489 66.25612015 86.78832489 64.72409058 86.77960205 C62.60757501 86.77016353 60.49104482 86.76362263 58.37451172 86.75976562 C55.14394417 86.75005693 51.91401215 86.71902108 48.68359375 86.6875 C46.62500377 86.68096982 44.56640925 86.67571941 42.5078125 86.671875 C41.54513458 86.6595282 40.58245667 86.6471814 39.59060669 86.63446045 C33.10390391 86.65590981 29.0623805 87.84805695 23.6875 91.625 Z " fill="#4277B4" transform="translate(120,235)"/>
<path d="M0 0 C1.03726103 -0.00538554 2.07452206 -0.01077108 3.14321524 -0.01631981 C6.62396309 -0.03064392 10.10433303 -0.02348452 13.58509827 -0.01637268 C16.07853502 -0.02207389 18.57196916 -0.02903718 21.06539917 -0.03717041 C27.13812126 -0.05327674 33.21069449 -0.05519691 39.28342336 -0.04995751 C44.21938116 -0.04591597 49.15530839 -0.04735916 54.09126472 -0.05270576 C54.79379669 -0.05345419 55.49632866 -0.05420261 56.22014948 -0.05497371 C57.64734543 -0.05650519 59.07454137 -0.05804354 60.5017373 -0.05958868 C73.88548639 -0.07331641 87.26917703 -0.06787411 100.65292478 -0.05640347 C112.89621277 -0.04647069 125.13934963 -0.05941198 137.38261431 -0.08333766 C149.95533528 -0.10772197 162.52798585 -0.11733819 175.10073 -0.11068493 C182.15885186 -0.10719123 189.21685749 -0.10943468 196.27496147 -0.12693596 C202.91109683 -0.14318686 209.5469902 -0.13848669 216.18313408 -0.11963081 C218.6204167 -0.11593565 221.05772059 -0.11908022 223.49498367 -0.1295166 C226.81885051 -0.14266413 230.14175133 -0.13123332 233.46557617 -0.11352539 C234.43298939 -0.1231304 235.40040261 -0.1327354 236.39713138 -0.14263147 C242.18383792 -0.07908006 245.35036531 0.60739988 249.79627991 4.38768005 C252.90063352 7.90594748 254.12026211 12.06878272 253.94862366 16.72361755 C251.40619266 22.60137328 243.81422973 25.18783478 238.36708069 28.0087738 C233.96798186 30.36832843 229.77005066 33.04327287 225.54627991 35.70018005 C223.77067302 36.80504575 221.99462646 37.90920515 220.21815491 39.01268005 C219.32805725 39.56697693 218.43795959 40.1212738 217.52088928 40.69236755 C212.9507793 43.53599154 208.37327397 46.36765508 203.79627991 49.20018005 C202.98513733 49.70267273 202.17399475 50.20516541 201.33827209 50.72288513 C199.74283192 51.71092995 198.13784973 52.68375058 196.52322388 53.64012146 C193.77227933 55.31439586 193.77227933 55.31439586 191.44891357 57.39981079 C180.56606953 65.86954657 167.71604245 64.70500489 154.48745561 64.72573662 C152.42346056 64.73147832 150.35987298 64.74865947 148.29598045 64.76971436 C141.04914906 64.843502 133.80348418 64.87643019 126.55628967 64.87010193 C119.8770778 64.86532132 113.203089 64.94924779 106.52519494 65.07605124 C100.73325403 65.18197615 94.94298212 65.22351901 89.15008467 65.21845865 C85.71584471 65.21645303 82.28623641 65.23721206 78.8529911 65.32388306 C58.08575157 65.75595648 45.8125733 61.21941803 29.36103344 49.23369694 C26.08570509 46.87623398 22.70681547 44.80618286 19.23768616 42.74705505 C9.3744468 36.6934309 -0.47680458 30.62268689 -10.26622009 24.45018005 C-11.06406921 23.94776794 -11.86191833 23.44535583 -12.6839447 22.92771912 C-18.07822779 19.51317236 -18.07822779 19.51317236 -19.20372009 18.38768005 C-19.80178368 13.73062756 -19.6314735 10.24318687 -17.51622009 6.01268005 C-12.23592303 0.01882934 -7.57389386 -0.0469445 0 0 Z " fill="#2D8ABE" transform="translate(139.20372009277344,186.61231994628906)"/>
<path d="M0 0 C38.94 0 77.88 0 118 0 C118 6.6 118 13.2 118 20 C79.06 20 40.12 20 0 20 C0 13.4 0 6.8 0 0 Z " fill="#1F95C4" transform="translate(197,141)"/>
</svg>
